<svg xmlns="http://www.w3.org/2000/svg" version="1.1" xmlns:xlink="http://www.w3.org/1999/xlink" xmlns:svgjs="http://svgjs.dev/svgjs" width="1000" height="623" viewBox="0 0 1000 623"><g transform="matrix(1,0,0,1,-0.6060606060606233,0.2522267206477409)"><svg viewBox="0 0 396 247" data-background-color="#ffffff" preserveAspectRatio="xMidYMid meet" height="623" width="1000" xmlns="http://www.w3.org/2000/svg" xmlns:xlink="http://www.w3.org/1999/xlink"><g id="tight-bounds" transform="matrix(1,0,0,1,0.2400000000000091,-0.09999999999999432)"><svg viewBox="0 0 395.52 247.2" height="247.2" width="395.52"><g><svg></svg></g><g><svg viewBox="0 0 395.52 247.2" height="247.2" width="395.52"><mask id="ea82a518-3119-4534-b5ea-45a27037efef"><rect width="640" height="400" fill="white"></rect><g transform="matrix(1,0,0,1,39.55199999999999,93.80686287015945)"><svg viewBox="0 0 316.416 59.58627425968108" height="59.58627425968108" width="316.416"><g><svg viewBox="0 0 316.416 59.58627425968108" height="59.58627425968108" width="316.416"><g><svg viewBox="0 0 316.416 59.58627425968108" height="59.58627425968108" width="316.416"><g><svg viewBox="0 0 316.416 59.58627425968108" height="59.58627425968108" width="316.416"><g id="SvgjsG1550"><svg viewBox="0 0 316.416 59.58627425968108" height="59.58627425968108" width="316.416" id="SvgjsSvg1549"><g><svg viewBox="0 0 316.416 59.58627425968108" height="59.58627425968108" width="316.416"><g transform="matrix(1,0,0,1,0,0)"><svg width="316.416" viewBox="-1.5 -40.54999923706055 330.2200012207031 63.00312423706055" height="59.58627425968108" data-palette-color="#001f3f"><path d="M10.6-22.5Q10.7-22.4 10.8-22.35 10.9-22.3 11-22.25L11-22.25Q12.85-23.65 14.95-25.15L14.95-25.15 25.9-32.9Q26.45-33.3 27.55-33.3L27.55-33.3Q28.45-33.3 29.28-32.98 30.1-32.65 30.45-32.1L30.45-32.1Q30.75-31.65 30.75-31.2L30.75-31.2Q30.75-30.55 29.95-29.75L29.95-29.75 24.45-25.1 23.05-23.95Q20.65-22.05 19.5-21L19.5-21Q18.8-20.4 18.48-19.98 18.15-19.55 18.15-19.1L18.15-19.1Q18.15-18.5 19-17.1L19-17.1 19.9-15.7Q23.2-10.4 25.58-7 27.95-3.6 30.85-0.55L30.85-0.55 31.7 0.4Q30.85 1.1 30.2 1.1L30.2 1.1Q29.6 1.1 29.05 0.65L29.05 0.65Q25.6-1.9 22.9-4.58 20.2-7.25 18.25-10.45L18.25-10.45Q17.25-12.05 15.75-14.05L15.75-14.05Q15.65-14.25 14.45-15.95L14.45-15.95 13-14.75Q10.25-12.55 8.85-11.2L8.85-11.2Q8.4-10.8 8.15-10.08 7.9-9.35 7.85-8.65L7.85-8.65Q7.8-7.85 7.8-6.2L7.8-6.2 7.85-1.25Q7.85-0.1 7.63 0.68 7.4 1.45 6.6 1.95L6.6 1.95Q4.8 1.3 4.13 0.85 3.45 0.4 3.23-0.35 3-1.1 2.95-2.85L2.95-2.85 2.75-5.4Q2.5-7.5 2.5-9.05L2.5-9.05Q2.5-11.4 2.88-13.78 3.25-16.15 4-19.7L4-19.7Q5-24.75 6.3-29L6.3-29Q6.9-30.85 7.95-32.88 9-34.9 9.2-35.3L9.2-35.3Q9.55-35.95 9.93-36.25 10.3-36.55 10.8-36.55L10.8-36.55Q11.55-36.55 13.1-35.8L13.1-35.8Q13.85-35.45 14.13-35.15 14.4-34.85 14.4-34.4L14.4-34.4Q14.4-33.95 14.1-33.1L14.1-33.1 12.4-28.25Q12.05-27.15 11.25-24.95L11.25-24.95Q11.05-24.35 10.6-22.5L10.6-22.5ZM44.7-18.85Q44.7-18.55 44.6-18.07 44.5-17.6 44.55-17.45L44.55-17.45Q48-18.2 50.4-18.2L50.4-18.2Q54.15-18.2 56.05-14.6L56.05-14.6Q57.6-11.55 57.6-7.85L57.6-7.85Q57.6-6.9 57.4-5.1L57.4-5.1Q57.25-3.9 56.45-3.18 55.65-2.45 54.55-2.45L54.55-2.45Q53.4-2.45 52.92-2.88 52.45-3.3 52.37-3.85 52.3-4.4 52.3-5.6L52.3-5.6 52.25-6.65Q52.15-9.65 51.85-11.85L51.85-11.85Q51.7-12.75 51.17-13.13 50.65-13.5 49.8-13.5L49.8-13.5Q49-13.5 47.9-13.25L47.9-13.25Q46.2-12.8 45.62-12.55 45.05-12.3 43.95-11.5L43.95-11.5Q43.6-11.25 43.45-10.5 43.3-9.75 43.3-9.65L43.3-9.65Q42.65-6.45 41.9-2L41.9-2Q41.85-1.8 41.7-1.05 41.55-0.3 41.12 0.03 40.7 0.35 39.9 0.25L39.9 0.25Q36.75-0.15 36.7-2.4L36.7-2.4Q36.65-5.3 37.15-9.25L37.15-9.25Q37.5-12.1 37.8-13.85L37.8-13.85Q37.9-14.65 38.07-15.8 38.25-16.95 38.4-18.45L38.4-18.45Q38.55-19.6 38.7-20.15 38.85-20.7 39.4-21.08 39.95-21.45 41.1-21.45L41.1-21.45Q42.55-21.45 43.5-20.8 44.45-20.15 44.7-18.95L44.7-18.95 44.7-18.85ZM71.5-3.35Q69.95-2.4 67.95-2.4L67.95-2.4Q65.75-2.4 63.72-3.53 61.7-4.65 60.5-6.75 59.3-8.85 59.5-11.55L59.5-11.55 59.75-12.75Q60.05-14.55 60.25-15.4L60.25-15.4Q60.7-17.25 62.05-18 63.4-18.75 65.65-19.2L65.65-19.2Q67.1-19.5 68.5-19.5L68.5-19.5Q72.9-19.5 75.9-16.55L75.9-16.55Q77.5-14.95 77.5-12.65L77.5-12.65Q77.5-10.4 75.85-7.8L75.85-7.8Q73.95-4.85 71.5-3.35L71.5-3.35ZM67.3-16.95Q66.5-15 65.6-12.1L65.6-12.1 65.1-10.6 65.45-10.45Q65.45-10.1 65.47-9.38 65.5-8.65 65.65-8.15L65.65-8.15Q66.2-6.6 66.9-6.25L66.9-6.25Q67.2-6.1 67.77-6.4 68.35-6.7 68.8-7.1L68.8-7.1Q69.5-7.7 71.05-9.6L71.05-9.6Q72.2-10.9 72.2-12.7L72.2-12.7Q72.2-14.25 71.32-15.5 70.45-16.75 68.9-17.2L68.9-17.2Q68.75-17.25 68.35-17.25L68.35-17.25Q67.4-17.25 67.3-16.95L67.3-16.95ZM96.84-5.65Q96.74-5.75 95.74-6.95L95.74-6.95Q94.09-3.1 93.39-1.8L93.39-1.8Q92.29 0.45 90.44 0.45L90.44 0.45Q89.59 0.45 88.39-0.1L88.39-0.1Q86.39-1.1 85.19-2.8 83.99-4.5 83.29-6.9L83.29-6.9Q82.29-10.3 81.49-14L81.49-14Q81.39-14.5 81.39-14.7L81.39-14.7Q81.39-15.9 82.59-16.6L82.59-16.6Q83.44-17.05 84.09-17.05L84.09-17.05Q84.74-17.05 85.59-16.6L85.59-16.6Q86.94-15.9 87.57-14.98 88.19-14.05 88.24-12.55L88.24-12.55Q88.29-11.45 88.94-9.43 89.59-7.4 89.74-7.3L89.74-7.3Q89.89-7.5 90.29-7.95 90.69-8.4 90.89-8.8L90.89-8.8 91.79-10.65Q92.99-13.15 93.79-14.3L93.79-14.3Q94.39-15.2 95.22-15.65 96.04-16.1 96.94-16.1L96.94-16.1Q98.54-16.1 99.94-14.7L99.94-14.7Q100.34-14.25 100.69-12.8L100.69-12.8Q100.84-12.1 101.04-10.95L101.04-10.95Q101.39-8.7 101.89-7.3L101.89-7.3Q102.19-6.45 102.89-6.45L102.89-6.45Q103.54-6.45 104.04-7.25L104.04-7.25Q105.24-9.35 106.64-12.35L106.64-12.35Q107.49-14.3 108.34-15.75 109.19-17.2 111.09-19.4L111.09-19.4Q111.59-20 112.44-20.43 113.29-20.85 113.99-20.8L113.99-20.8Q114.49-20.75 114.79-19.9 115.09-19.05 115.09-18L115.09-18Q115.09-17.5 114.99-16.9L114.99-16.9Q114.74-15.7 114.34-14.75 113.94-13.8 113.19-12.15L113.19-12.15Q112.29-10.2 112.04-9.6L112.04-9.6 111.39-8.6Q109.54-5.75 108.64-4.6L108.64-4.6Q107.34-3 105.34-1.6L105.34-1.6Q104.59-1.05 103.74-1.05L103.74-1.05Q103.04-1.05 102.39-1.33 101.74-1.6 101.14-1.98 100.54-2.35 100.24-2.55L100.24-2.55Q99.19-3.15 97.64-4.8L97.64-4.8Q97.14-5.4 96.84-5.65L96.84-5.65ZM123.34-2.3Q124.34-3.5 124.79-4.2L124.79-4.2Q125.34-4.95 125.94-4.95L125.94-4.95Q126.54-4.95 126.84-4.2L126.84-4.2Q127.54-2.2 127.54-1.05L127.54-1.05Q127.54-0.55 127.49-0.3L127.49-0.3Q127.29 0.7 126.37 1.1 125.44 1.5 124.19 1.4L124.19 1.4Q123.74 1.4 122.67 1.4 121.59 1.4 120.82 1.1 120.04 0.8 119.44 0.1L119.44 0.1Q118.14-1.45 118.14-2.9L118.14-2.9Q118.14-14.6 118.04-20.5L118.04-20.5 117.99-29.3Q117.99-31.05 117.64-32.5L117.64-32.5Q117.59-32.75 117.59-33.1L117.59-33.1Q117.59-34.95 120.09-34.95L120.09-34.95Q121.74-34.95 122.87-33.88 123.99-32.8 123.89-31.05L123.89-31.05Q123.74-28.4 123.49-23.1L123.49-23.1 123.19-17.1Q122.79-8.6 122.64-4.35L122.64-4.35Q122.59-3.85 122.69-3.25 122.79-2.65 122.84-2.5L122.84-2.5 123.34-2.3ZM140.19-7.8Q139.69-7.5 138.74-7.5L138.74-7.5Q138.39-7.5 137.89-7.55 137.39-7.6 137.04-7.55L137.04-7.55Q137.44-5.9 138.94-4.88 140.44-3.85 142.29-3.85L142.29-3.85Q143.89-3.85 145.14-4.55L145.14-4.55Q146.99-5.5 148.34-6.8L148.34-6.8Q149.29-7.75 150.14-7.75L150.14-7.75Q150.69-7.75 151.09-7.2L151.09-7.2Q151.49-6.55 151.49-5.6L151.49-5.6Q151.49-4.6 151.09-4.05L151.09-4.05Q149.79-2.05 147.71-1.3 145.64-0.55 142.89-0.55L142.89-0.55Q140.04-0.55 137.39-1.8 134.74-3.05 132.86-5.23 130.99-7.4 130.39-10.05L130.39-10.05Q129.99-11.6 129.99-13.1L129.99-13.1Q129.99-15.45 131.31-16.9 132.64-18.35 135.59-19.65L135.59-19.65Q138.29-20.8 140.59-20.8L140.59-20.8Q142.24-20.8 143.79-20.3L143.79-20.3Q148.59-18.8 148.59-16.2L148.59-16.2Q148.59-14.55 146.64-12.2L146.64-12.2Q145.69-11.1 144.39-10.25 143.09-9.4 141.86-8.72 140.64-8.05 140.19-7.8L140.19-7.8ZM142.29-17.05Q142.24-17.3 141.91-17.48 141.59-17.65 141.54-17.7L141.54-17.7Q140.19-17.8 138.79-16.93 137.39-16.05 136.46-14.7 135.54-13.35 135.54-12.1L135.54-12.1 135.59-11.7Q135.64-11.5 136.11-11.2 136.59-10.9 136.69-11L136.69-11Q140.24-13.65 142.04-15.25L142.04-15.25Q142.34-15.55 142.34-16.35L142.34-16.35Q142.34-16.85 142.29-17.05L142.29-17.05ZM173.49-5.85Q173.59-5 174.24-3.65L174.24-3.65Q174.34-3.4 174.46-3.1 174.59-2.8 174.74-2.4L174.74-2.4Q173.04-1.45 172.04-1.45L172.04-1.45Q171.29-1.45 170.64-1.93 169.99-2.4 169.19-3.45L169.19-3.45Q168.59-4.15 168.19-4.15L168.19-4.15Q167.79-4.15 167.34-3.5L167.34-3.5Q166.34-2 164.86-1.25 163.39-0.5 161.74-0.5L161.74-0.5Q159.89-0.5 158.16-1.38 156.44-2.25 155.49-3.75L155.49-3.75Q154.49-5.3 154.49-8.35L154.49-8.35Q154.49-10.55 155.09-12.8 155.69-15.05 156.79-16.5L156.79-16.5Q157.99-18.15 159.64-19.13 161.29-20.1 163.29-20.1L163.29-20.1Q163.94-20.1 164.29-20.05L164.29-20.05Q164.44-20 164.74-20L164.74-20Q165.89-20 165.89-21.1L165.89-21.1 165.84-21.5Q165.14-27.25 164.59-29.95L164.59-29.95Q164.54-30.2 164.44-30.75 164.34-31.3 164.34-31.65L164.34-31.65Q164.34-32.35 164.64-32.88 164.94-33.4 165.69-33.75L165.69-33.75Q165.99-33.9 166.39-33.9L166.39-33.9Q167.44-33.9 168.59-33.23 169.74-32.55 169.94-31.7L169.94-31.7Q170.69-28.6 171.34-23.65L171.34-23.65 172.24-16.05Q173.04-9.25 173.49-5.85L173.49-5.85ZM160.14-12.1Q159.29-9.65 159.29-7.6L159.29-7.6Q159.29-4.75 161.29-3.4L161.29-3.4Q162.09-3.85 162.56-4.42 163.04-5 163.69-6.1L163.69-6.1 164.24-7.05Q165.39-8.7 165.76-10.75 166.14-12.8 166.24-15.95L166.24-15.95Q166.29-16.4 166.06-16.98 165.84-17.55 165.59-17.6L165.59-17.6Q165.19-17.7 164.24-17.38 163.29-17.05 163.04-16.7L163.04-16.7Q161.89-15.35 161.21-14.35 160.54-13.35 160.14-12.1L160.14-12.1ZM196.03-12.6Q195.88-9 195.53-7.15 195.18-5.3 194.16-3.63 193.13-1.95 190.83 0.25L190.83 0.25 192.58 1.2Q194.18 2.1 194.93 2.45L194.93 2.45Q197.18 3.5 198.33 5.13 199.48 6.75 199.48 8.7L199.48 8.7Q199.48 11.1 197.88 13.45L197.88 13.45Q196.18 15.95 193.63 17.18 191.08 18.4 188.18 18.45L188.18 18.45Q186.03 18.5 183.78 17.75L183.78 17.75Q182.73 17.4 181.68 16.23 180.63 15.05 180.01 13.6 179.38 12.15 179.43 11.05L179.43 11.05Q179.48 10.8 179.63 10.53 179.78 10.25 179.98 10.2L179.98 10.2Q180.03 10.15 180.18 10.15L180.18 10.15Q180.33 10.15 180.61 10.28 180.88 10.4 180.98 10.45L180.98 10.45Q181.23 10.55 181.33 10.9L181.33 10.9Q182.03 12.45 182.88 13.35 183.73 14.25 185.13 14.15L185.13 14.15Q190.28 13.8 192.18 11.3L192.18 11.3Q192.83 10.5 193.26 9.47 193.68 8.45 193.68 7.55L193.68 7.55Q193.68 6.25 193.06 5.65 192.43 5.05 191.13 4.8L191.13 4.8Q189.73 4.55 188.46 4.1 187.18 3.65 185.38 2.75L185.38 2.75Q184.48 2.3 184.13 1.95 183.78 1.6 183.78 1.1L183.78 1.1Q183.78 0.6 184.38-1.45L184.38-1.45Q184.48-1.75 183.46-2.45 182.43-3.15 181.68-3.6L181.68-3.6Q178.98-5.2 178.98-8.8L178.98-8.8Q178.98-9.8 179.13-10.7L179.13-10.7Q180.03-16.2 184.48-18.5L184.48-18.5Q185.53-19.05 186.68-19.05L186.68-19.05Q187.53-19.05 188.43-18.8 189.33-18.55 189.48-18.5L189.48-18.5 190.53-18.2Q191.28-18 191.98-18L191.98-18Q192.93-18 193.71-18.35 194.48-18.7 195.28-19.45L195.28-19.45Q196.43-20.4 197.73-20.4L197.73-20.4Q198.68-20.4 199.43-19.88 200.18-19.35 200.53-18.35L200.53-18.35Q200.63-17.95 200.63-17.7L200.63-17.7Q200.63-17.25 200.48-17L200.48-17Q200.33-16.8 199.63-15.7L199.63-15.7Q199.28-15.05 198.98-14.6 198.68-14.15 198.03-13.6L198.03-13.6Q197.58-13.35 197.08-13.23 196.58-13.1 196.31-13 196.03-12.9 196.03-12.6L196.03-12.6ZM185.53-13.35Q183.98-11.55 183.98-9.7L183.98-9.7Q183.98-8.4 184.81-7.23 185.63-6.05 187.33-5.2L187.33-5.2Q189.23-5.95 190.28-7.8 191.33-9.65 191.33-11.85L191.33-11.85Q191.33-13.2 190.93-14.3 190.53-15.4 189.33-16L189.33-16Q187.03-15.1 185.53-13.35L185.53-13.35ZM212.83-7.8Q212.33-7.5 211.38-7.5L211.38-7.5Q211.03-7.5 210.53-7.55 210.03-7.6 209.68-7.55L209.68-7.55Q210.08-5.9 211.58-4.88 213.08-3.85 214.93-3.85L214.93-3.85Q216.53-3.85 217.78-4.55L217.78-4.55Q219.63-5.5 220.98-6.8L220.98-6.8Q221.93-7.75 222.78-7.75L222.78-7.75Q223.33-7.75 223.73-7.2L223.73-7.2Q224.13-6.55 224.13-5.6L224.13-5.6Q224.13-4.6 223.73-4.05L223.73-4.05Q222.43-2.05 220.36-1.3 218.28-0.55 215.53-0.55L215.53-0.55Q212.68-0.55 210.03-1.8 207.38-3.05 205.51-5.23 203.63-7.4 203.03-10.05L203.03-10.05Q202.63-11.6 202.63-13.1L202.63-13.1Q202.63-15.45 203.96-16.9 205.28-18.35 208.23-19.65L208.23-19.65Q210.93-20.8 213.23-20.8L213.23-20.8Q214.88-20.8 216.43-20.3L216.43-20.3Q221.23-18.8 221.23-16.2L221.23-16.2Q221.23-14.55 219.28-12.2L219.28-12.2Q218.33-11.1 217.03-10.25 215.73-9.4 214.51-8.72 213.28-8.05 212.83-7.8L212.83-7.8ZM214.93-17.05Q214.88-17.3 214.56-17.48 214.23-17.65 214.18-17.7L214.18-17.7Q212.83-17.8 211.43-16.93 210.03-16.05 209.11-14.7 208.18-13.35 208.18-12.1L208.18-12.1 208.23-11.7Q208.28-11.5 208.76-11.2 209.23-10.9 209.33-11L209.33-11Q212.88-13.65 214.68-15.25L214.68-15.25Q214.98-15.55 214.98-16.35L214.98-16.35Q214.98-16.85 214.93-17.05L214.93-17.05ZM247.73-22.5Q247.83-22.4 247.93-22.35 248.03-22.3 248.13-22.25L248.13-22.25Q249.98-23.65 252.08-25.15L252.08-25.15 263.03-32.9Q263.58-33.3 264.68-33.3L264.68-33.3Q265.58-33.3 266.4-32.98 267.23-32.65 267.58-32.1L267.58-32.1Q267.88-31.65 267.88-31.2L267.88-31.2Q267.88-30.55 267.08-29.75L267.08-29.75 261.58-25.1 260.18-23.95Q257.78-22.05 256.63-21L256.63-21Q255.93-20.4 255.6-19.98 255.28-19.55 255.28-19.1L255.28-19.1Q255.28-18.5 256.13-17.1L256.13-17.1 257.03-15.7Q260.33-10.4 262.7-7 265.08-3.6 267.98-0.55L267.98-0.55 268.83 0.4Q267.98 1.1 267.33 1.1L267.33 1.1Q266.73 1.1 266.18 0.65L266.18 0.65Q262.73-1.9 260.03-4.58 257.33-7.25 255.38-10.45L255.38-10.45Q254.38-12.05 252.88-14.05L252.88-14.05Q252.78-14.25 251.58-15.95L251.58-15.95 250.13-14.75Q247.38-12.55 245.98-11.2L245.98-11.2Q245.53-10.8 245.28-10.08 245.03-9.35 244.98-8.65L244.98-8.65Q244.93-7.85 244.93-6.2L244.93-6.2 244.98-1.25Q244.98-0.1 244.75 0.68 244.53 1.45 243.73 1.95L243.73 1.95Q241.93 1.3 241.25 0.85 240.58 0.4 240.35-0.35 240.13-1.1 240.08-2.85L240.08-2.85 239.88-5.4Q239.63-7.5 239.63-9.05L239.63-9.05Q239.63-11.4 240-13.78 240.38-16.15 241.13-19.7L241.13-19.7Q242.13-24.75 243.43-29L243.43-29Q244.03-30.85 245.08-32.88 246.13-34.9 246.33-35.3L246.33-35.3Q246.68-35.95 247.05-36.25 247.43-36.55 247.93-36.55L247.93-36.55Q248.68-36.55 250.23-35.8L250.23-35.8Q250.98-35.45 251.25-35.15 251.53-34.85 251.53-34.4L251.53-34.4Q251.53-33.95 251.23-33.1L251.23-33.1 249.53-28.25Q249.18-27.15 248.38-24.95L248.38-24.95Q248.18-24.35 247.73-22.5L247.73-22.5ZM278.52-23.3Q278.42-23 277.8-22.65 277.17-22.3 276.77-22L276.77-22 275.37-22.75Q273.32-23.85 272.57-24.5L272.57-24.5Q272.17-24.8 272.17-25.25L272.17-25.25Q272.17-25.55 272.4-25.78 272.62-26 273.07-26L273.07-26Q275.02-26 277.82-25L277.82-25Q278.12-24.95 278.37-24.33 278.62-23.7 278.52-23.3L278.52-23.3ZM274.02-14Q274.17-14.65 274.22-14.95 274.27-15.25 274.27-15.6L274.27-15.6Q274.27-16.3 274.7-16.7 275.12-17.1 276.32-17.1L276.32-17.1Q277.72-17.1 278.8-16.23 279.87-15.35 280.12-13.95L280.12-13.95Q280.27-13.25 280.32-12.4 280.37-11.55 280.37-11.3L280.37-11.3 281.07-2.75Q281.22-1.4 280.7-0.68 280.17 0.05 278.72 0.05L278.72 0.05Q277.47 0.05 276.6-0.65 275.72-1.35 275.52-2.45L275.52-2.45 274.22-13.05 274.02-14ZM284.52-18.65Q284.17-19.05 284.05-19.5 283.92-19.95 283.82-20.75L283.82-20.75Q284.27-21.8 285.47-21.8L285.47-21.8Q286.07-21.7 286.32-21.7L286.32-21.7Q287.32-21.7 287.57-22.3 287.82-22.9 287.82-23.7 287.82-24.5 287.82-24.95L287.82-24.95 287.97-27.95Q288.02-28.95 288.1-30.43 288.17-31.9 288.27-33.85L288.27-33.85Q288.32-34.9 288.8-35.4 289.27-35.9 290.12-35.9L290.12-35.9Q290.72-35.9 291.07-35.8L291.07-35.8Q293.12-35.35 293.82-34.5 294.52-33.65 294.77-31.95L294.77-31.95Q294.82-31.6 294.67-30.5L294.67-30.5 293.77-22.7Q293.72-22.4 293.62-21.98 293.52-21.55 293.52-21.35L293.52-21.35Q293.52-20.9 294.02-20.75 294.52-20.6 295.87-20.65L295.87-20.65Q298.17-21.15 299.37-21.3L299.37-21.3Q299.62-21.35 300.17-21.35L300.17-21.35Q300.77-21.35 300.97-21.2L300.97-21.2Q301.17-21.1 301.3-20.63 301.42-20.15 301.42-19.55L301.42-19.55Q301.42-19 301.3-18.55 301.17-18.1 300.97-18.05L300.97-18.05Q299.62-17.65 297.77-17.4L297.77-17.4Q295.57-17 294.52-16.7L294.52-16.7Q293.97-16.55 293.42-15.95 292.87-15.35 292.82-14.85L292.82-14.85Q292.72-12.4 292.67-9.85L292.67-9.85Q292.62-7.9 292.82-5.95L292.82-5.95Q292.97-4.3 293.47-3.58 293.97-2.85 294.97-2.85L294.97-2.85Q295.77-2.85 297.27-3.4L297.27-3.4Q298.07-3.75 298.67-3.75L298.67-3.75Q299.62-3.75 300.02-2.7L300.02-2.7Q300.17-2.35 300.17-2L300.17-2Q300.17-1.35 299.7-0.95 299.22-0.55 298.42-0.25L298.42-0.25Q296.92 0.3 295.37 0.35L295.37 0.35Q293.27 0.35 291.42-0.68 289.57-1.7 288.5-3.55 287.42-5.4 287.57-7.8L287.57-7.8Q287.62-8.75 287.62-10.8L287.62-10.8Q287.62-14.05 287.37-17.4L287.37-17.4Q287.32-17.7 287.02-17.82 286.72-17.95 286.02-18.1L286.02-18.1Q284.87-18.3 284.52-18.65L284.52-18.65ZM313.42-7.8Q312.92-7.5 311.97-7.5L311.97-7.5Q311.62-7.5 311.12-7.55 310.62-7.6 310.27-7.55L310.27-7.55Q310.67-5.9 312.17-4.88 313.67-3.85 315.52-3.85L315.52-3.85Q317.12-3.85 318.37-4.55L318.37-4.55Q320.22-5.5 321.57-6.8L321.57-6.8Q322.52-7.75 323.37-7.75L323.37-7.75Q323.92-7.75 324.32-7.2L324.32-7.2Q324.72-6.55 324.72-5.6L324.72-5.6Q324.72-4.6 324.32-4.05L324.32-4.05Q323.02-2.05 320.94-1.3 318.87-0.55 316.12-0.55L316.12-0.55Q313.27-0.55 310.62-1.8 307.97-3.05 306.09-5.23 304.22-7.4 303.62-10.05L303.62-10.05Q303.22-11.6 303.22-13.1L303.22-13.1Q303.22-15.45 304.54-16.9 305.87-18.35 308.82-19.65L308.82-19.65Q311.52-20.8 313.82-20.8L313.82-20.8Q315.47-20.8 317.02-20.3L317.02-20.3Q321.82-18.8 321.82-16.2L321.82-16.2Q321.82-14.55 319.87-12.2L319.87-12.2Q318.92-11.1 317.62-10.25 316.32-9.4 315.09-8.72 313.87-8.05 313.42-7.8L313.42-7.8ZM315.52-17.05Q315.47-17.3 315.14-17.48 314.82-17.65 314.77-17.7L314.77-17.7Q313.42-17.8 312.02-16.93 310.62-16.05 309.69-14.7 308.77-13.35 308.77-12.1L308.77-12.1 308.82-11.7Q308.87-11.5 309.34-11.2 309.82-10.9 309.92-11L309.92-11Q313.47-13.65 315.27-15.25L315.27-15.25Q315.57-15.55 315.57-16.35L315.57-16.35Q315.57-16.85 315.52-17.05L315.52-17.05Z" opacity="1" transform="matrix(1,0,0,1,0,0)" fill="black" class="wordmark-text-0" id="SvgjsPath1548" stroke-width="7" stroke="black" stroke-linejoin="round"></path></svg></g></svg></g></svg></g></svg></g></svg></g></svg></g></svg></g></mask><g transform="matrix(1,0,0,1,39.55199999999999,93.80686287015945)"><svg viewBox="0 0 316.416 59.58627425968108" height="59.58627425968108" width="316.416"><g><svg viewBox="0 0 316.416 59.58627425968108" height="59.58627425968108" width="316.416"><g><svg viewBox="0 0 316.416 59.58627425968108" height="59.58627425968108" width="316.416"><g><svg viewBox="0 0 316.416 59.58627425968108" height="59.58627425968108" width="316.416"><g id="textblocktransform"><svg viewBox="0 0 316.416 59.58627425968108" height="59.58627425968108" width="316.416" id="textblock"><g><svg viewBox="0 0 316.416 59.58627425968108" height="59.58627425968108" width="316.416"><g transform="matrix(1,0,0,1,0,0)"><svg width="316.416" viewBox="-1.5 -40.54999923706055 330.2200012207031 63.00312423706055" height="59.58627425968108" data-palette-color="#001f3f"><path d="M10.6-22.5Q10.7-22.4 10.8-22.35 10.9-22.3 11-22.25L11-22.25Q12.85-23.65 14.95-25.15L14.95-25.15 25.9-32.9Q26.45-33.3 27.55-33.3L27.55-33.3Q28.45-33.3 29.28-32.98 30.1-32.65 30.45-32.1L30.45-32.1Q30.75-31.65 30.75-31.2L30.75-31.2Q30.75-30.55 29.95-29.75L29.95-29.75 24.45-25.1 23.05-23.95Q20.65-22.05 19.5-21L19.5-21Q18.8-20.4 18.48-19.98 18.15-19.55 18.15-19.1L18.15-19.1Q18.15-18.5 19-17.1L19-17.1 19.9-15.7Q23.2-10.4 25.58-7 27.95-3.6 30.85-0.55L30.85-0.55 31.7 0.4Q30.85 1.1 30.2 1.1L30.2 1.1Q29.6 1.1 29.05 0.65L29.05 0.65Q25.6-1.9 22.9-4.58 20.2-7.25 18.25-10.45L18.25-10.45Q17.25-12.05 15.75-14.05L15.75-14.05Q15.65-14.25 14.45-15.95L14.45-15.95 13-14.75Q10.25-12.55 8.85-11.2L8.85-11.2Q8.4-10.8 8.15-10.08 7.9-9.35 7.85-8.65L7.85-8.65Q7.8-7.85 7.8-6.2L7.8-6.2 7.85-1.25Q7.85-0.1 7.63 0.68 7.4 1.45 6.6 1.95L6.6 1.95Q4.8 1.3 4.13 0.85 3.45 0.4 3.23-0.35 3-1.1 2.95-2.85L2.95-2.85 2.75-5.4Q2.5-7.5 2.5-9.05L2.5-9.05Q2.5-11.4 2.88-13.78 3.25-16.15 4-19.7L4-19.7Q5-24.75 6.3-29L6.3-29Q6.9-30.85 7.95-32.88 9-34.9 9.2-35.3L9.2-35.3Q9.55-35.95 9.93-36.25 10.3-36.55 10.8-36.55L10.8-36.55Q11.55-36.55 13.1-35.8L13.1-35.8Q13.85-35.45 14.13-35.15 14.4-34.85 14.4-34.4L14.4-34.4Q14.4-33.95 14.1-33.1L14.1-33.1 12.4-28.25Q12.05-27.15 11.25-24.95L11.25-24.95Q11.05-24.35 10.6-22.5L10.6-22.5ZM44.7-18.85Q44.7-18.55 44.6-18.07 44.5-17.6 44.55-17.45L44.55-17.45Q48-18.2 50.4-18.2L50.4-18.2Q54.15-18.2 56.05-14.6L56.05-14.6Q57.6-11.55 57.6-7.85L57.6-7.85Q57.6-6.9 57.4-5.1L57.4-5.1Q57.25-3.9 56.45-3.18 55.65-2.45 54.55-2.45L54.55-2.45Q53.4-2.45 52.92-2.88 52.45-3.3 52.37-3.85 52.3-4.4 52.3-5.6L52.3-5.6 52.25-6.65Q52.15-9.65 51.85-11.85L51.85-11.85Q51.7-12.75 51.17-13.13 50.65-13.5 49.8-13.5L49.8-13.5Q49-13.5 47.9-13.25L47.9-13.25Q46.2-12.8 45.62-12.55 45.05-12.3 43.95-11.5L43.95-11.5Q43.6-11.25 43.45-10.5 43.3-9.75 43.3-9.65L43.3-9.65Q42.65-6.45 41.9-2L41.9-2Q41.85-1.8 41.7-1.05 41.55-0.3 41.12 0.03 40.7 0.35 39.9 0.25L39.9 0.25Q36.75-0.15 36.7-2.4L36.7-2.4Q36.65-5.3 37.15-9.25L37.15-9.25Q37.5-12.1 37.8-13.85L37.8-13.85Q37.9-14.65 38.07-15.8 38.25-16.95 38.4-18.45L38.4-18.45Q38.55-19.6 38.7-20.15 38.85-20.7 39.4-21.08 39.95-21.45 41.1-21.45L41.1-21.45Q42.55-21.45 43.5-20.8 44.45-20.15 44.7-18.95L44.7-18.95 44.7-18.85ZM71.5-3.35Q69.95-2.4 67.95-2.4L67.95-2.4Q65.75-2.4 63.72-3.53 61.7-4.65 60.5-6.75 59.3-8.85 59.5-11.55L59.5-11.55 59.75-12.75Q60.05-14.55 60.25-15.4L60.25-15.4Q60.7-17.25 62.05-18 63.4-18.75 65.65-19.2L65.65-19.2Q67.1-19.5 68.5-19.5L68.5-19.5Q72.9-19.5 75.9-16.55L75.9-16.55Q77.5-14.95 77.5-12.65L77.5-12.65Q77.5-10.4 75.85-7.8L75.85-7.8Q73.95-4.85 71.5-3.35L71.5-3.35ZM67.3-16.95Q66.5-15 65.6-12.1L65.6-12.1 65.1-10.6 65.45-10.45Q65.45-10.1 65.47-9.38 65.5-8.65 65.65-8.15L65.65-8.15Q66.2-6.6 66.9-6.25L66.9-6.25Q67.2-6.1 67.77-6.4 68.35-6.7 68.8-7.1L68.8-7.1Q69.5-7.7 71.05-9.6L71.05-9.6Q72.2-10.9 72.2-12.7L72.2-12.7Q72.2-14.25 71.32-15.5 70.45-16.75 68.9-17.2L68.9-17.2Q68.75-17.25 68.35-17.25L68.35-17.25Q67.4-17.25 67.3-16.95L67.3-16.95ZM96.84-5.65Q96.74-5.75 95.74-6.95L95.74-6.95Q94.09-3.1 93.39-1.8L93.39-1.8Q92.29 0.45 90.44 0.45L90.44 0.45Q89.59 0.45 88.39-0.1L88.39-0.1Q86.39-1.1 85.19-2.8 83.99-4.5 83.29-6.9L83.29-6.9Q82.29-10.3 81.49-14L81.49-14Q81.39-14.5 81.39-14.7L81.39-14.7Q81.39-15.9 82.59-16.6L82.59-16.6Q83.44-17.05 84.09-17.05L84.09-17.05Q84.74-17.05 85.59-16.6L85.59-16.6Q86.94-15.9 87.57-14.98 88.19-14.05 88.24-12.55L88.24-12.55Q88.29-11.45 88.94-9.43 89.59-7.4 89.74-7.3L89.74-7.3Q89.89-7.5 90.29-7.95 90.69-8.4 90.89-8.8L90.89-8.8 91.79-10.65Q92.99-13.15 93.79-14.3L93.79-14.3Q94.39-15.2 95.22-15.65 96.04-16.1 96.94-16.1L96.94-16.1Q98.54-16.1 99.94-14.7L99.94-14.7Q100.34-14.25 100.69-12.8L100.69-12.8Q100.84-12.1 101.04-10.95L101.04-10.95Q101.39-8.7 101.89-7.3L101.89-7.3Q102.19-6.45 102.89-6.45L102.89-6.45Q103.54-6.45 104.04-7.25L104.04-7.25Q105.24-9.35 106.64-12.35L106.64-12.35Q107.49-14.3 108.34-15.75 109.19-17.2 111.09-19.4L111.09-19.4Q111.59-20 112.44-20.43 113.29-20.85 113.99-20.8L113.99-20.8Q114.49-20.75 114.79-19.9 115.09-19.05 115.09-18L115.09-18Q115.09-17.5 114.99-16.9L114.99-16.9Q114.74-15.7 114.34-14.75 113.94-13.8 113.19-12.15L113.19-12.15Q112.29-10.2 112.04-9.6L112.04-9.6 111.39-8.6Q109.54-5.75 108.64-4.6L108.64-4.6Q107.34-3 105.34-1.6L105.34-1.6Q104.59-1.05 103.74-1.05L103.74-1.05Q103.04-1.05 102.39-1.33 101.74-1.6 101.14-1.98 100.54-2.35 100.24-2.55L100.24-2.55Q99.19-3.15 97.64-4.8L97.64-4.8Q97.14-5.4 96.84-5.65L96.84-5.65ZM123.34-2.3Q124.34-3.5 124.79-4.2L124.79-4.2Q125.34-4.95 125.94-4.95L125.94-4.95Q126.54-4.95 126.84-4.2L126.84-4.2Q127.54-2.2 127.54-1.05L127.54-1.05Q127.54-0.55 127.49-0.3L127.49-0.3Q127.29 0.7 126.37 1.1 125.44 1.5 124.19 1.4L124.19 1.4Q123.74 1.4 122.67 1.4 121.59 1.4 120.82 1.1 120.04 0.8 119.44 0.1L119.44 0.1Q118.14-1.45 118.14-2.9L118.14-2.9Q118.14-14.6 118.04-20.5L118.04-20.5 117.99-29.3Q117.99-31.05 117.64-32.5L117.64-32.5Q117.59-32.75 117.59-33.1L117.59-33.1Q117.59-34.95 120.09-34.95L120.09-34.95Q121.74-34.95 122.87-33.88 123.99-32.8 123.89-31.05L123.89-31.05Q123.74-28.4 123.49-23.1L123.49-23.1 123.19-17.1Q122.79-8.6 122.64-4.35L122.64-4.35Q122.59-3.85 122.69-3.25 122.79-2.65 122.84-2.5L122.84-2.5 123.34-2.3ZM140.19-7.8Q139.69-7.5 138.74-7.5L138.74-7.5Q138.39-7.5 137.89-7.55 137.39-7.6 137.04-7.55L137.04-7.55Q137.44-5.9 138.94-4.88 140.44-3.85 142.29-3.85L142.29-3.85Q143.89-3.85 145.14-4.55L145.14-4.55Q146.99-5.5 148.34-6.8L148.34-6.8Q149.29-7.75 150.14-7.75L150.14-7.75Q150.69-7.75 151.09-7.2L151.09-7.2Q151.49-6.55 151.49-5.6L151.49-5.6Q151.49-4.6 151.09-4.05L151.09-4.05Q149.79-2.05 147.71-1.3 145.64-0.55 142.89-0.55L142.89-0.55Q140.04-0.55 137.39-1.8 134.74-3.05 132.86-5.23 130.99-7.4 130.39-10.05L130.39-10.05Q129.99-11.6 129.99-13.1L129.99-13.1Q129.99-15.45 131.31-16.9 132.64-18.35 135.59-19.65L135.59-19.65Q138.29-20.8 140.59-20.8L140.59-20.8Q142.24-20.8 143.79-20.3L143.79-20.3Q148.59-18.8 148.59-16.2L148.59-16.2Q148.59-14.55 146.64-12.2L146.64-12.2Q145.69-11.1 144.39-10.25 143.09-9.4 141.86-8.72 140.64-8.05 140.19-7.8L140.19-7.8ZM142.29-17.05Q142.24-17.3 141.91-17.48 141.59-17.65 141.54-17.7L141.54-17.7Q140.19-17.8 138.79-16.93 137.39-16.05 136.46-14.7 135.54-13.35 135.54-12.1L135.54-12.1 135.59-11.7Q135.64-11.5 136.11-11.2 136.59-10.9 136.69-11L136.69-11Q140.24-13.65 142.04-15.25L142.04-15.25Q142.34-15.55 142.34-16.35L142.34-16.35Q142.34-16.85 142.29-17.05L142.29-17.05ZM173.49-5.85Q173.59-5 174.24-3.65L174.24-3.65Q174.34-3.4 174.46-3.1 174.59-2.8 174.74-2.4L174.74-2.4Q173.04-1.45 172.04-1.45L172.04-1.45Q171.29-1.45 170.64-1.93 169.99-2.4 169.19-3.45L169.19-3.45Q168.59-4.15 168.19-4.15L168.19-4.15Q167.79-4.15 167.34-3.5L167.34-3.5Q166.34-2 164.86-1.25 163.39-0.5 161.74-0.5L161.74-0.5Q159.89-0.5 158.16-1.38 156.44-2.25 155.49-3.75L155.49-3.75Q154.49-5.3 154.49-8.35L154.49-8.35Q154.49-10.55 155.09-12.8 155.69-15.05 156.79-16.5L156.79-16.5Q157.99-18.15 159.64-19.13 161.29-20.1 163.29-20.1L163.29-20.1Q163.94-20.1 164.29-20.05L164.29-20.05Q164.44-20 164.74-20L164.74-20Q165.89-20 165.89-21.1L165.89-21.1 165.84-21.5Q165.14-27.25 164.59-29.95L164.59-29.95Q164.54-30.2 164.44-30.75 164.34-31.3 164.34-31.65L164.34-31.65Q164.34-32.35 164.64-32.88 164.94-33.4 165.69-33.75L165.69-33.75Q165.99-33.9 166.39-33.9L166.39-33.9Q167.44-33.9 168.59-33.23 169.74-32.55 169.94-31.7L169.94-31.7Q170.69-28.6 171.34-23.65L171.34-23.65 172.24-16.05Q173.04-9.25 173.49-5.85L173.49-5.85ZM160.14-12.1Q159.29-9.65 159.29-7.6L159.29-7.6Q159.29-4.75 161.29-3.4L161.29-3.4Q162.09-3.85 162.56-4.42 163.04-5 163.69-6.1L163.69-6.1 164.24-7.05Q165.39-8.7 165.76-10.75 166.14-12.8 166.24-15.95L166.24-15.95Q166.29-16.4 166.06-16.98 165.84-17.55 165.59-17.6L165.59-17.6Q165.19-17.7 164.24-17.38 163.29-17.05 163.04-16.7L163.04-16.7Q161.89-15.35 161.21-14.35 160.54-13.35 160.14-12.1L160.14-12.1ZM196.03-12.6Q195.88-9 195.53-7.15 195.18-5.3 194.16-3.63 193.13-1.95 190.83 0.25L190.83 0.25 192.58 1.2Q194.18 2.1 194.93 2.45L194.93 2.45Q197.18 3.5 198.33 5.13 199.48 6.75 199.48 8.7L199.48 8.7Q199.48 11.1 197.88 13.45L197.88 13.45Q196.18 15.95 193.63 17.18 191.08 18.4 188.18 18.45L188.18 18.45Q186.03 18.5 183.78 17.75L183.78 17.75Q182.73 17.4 181.68 16.23 180.63 15.05 180.01 13.6 179.38 12.15 179.43 11.05L179.43 11.05Q179.48 10.8 179.63 10.53 179.78 10.25 179.98 10.2L179.98 10.2Q180.03 10.15 180.18 10.15L180.18 10.15Q180.33 10.15 180.61 10.28 180.88 10.4 180.98 10.45L180.98 10.45Q181.23 10.55 181.33 10.9L181.33 10.9Q182.03 12.45 182.88 13.35 183.73 14.25 185.13 14.15L185.13 14.15Q190.28 13.8 192.18 11.3L192.18 11.3Q192.83 10.5 193.26 9.47 193.68 8.45 193.68 7.55L193.68 7.55Q193.68 6.25 193.06 5.65 192.43 5.05 191.13 4.8L191.13 4.8Q189.73 4.55 188.46 4.1 187.18 3.65 185.38 2.75L185.38 2.75Q184.48 2.3 184.13 1.95 183.78 1.6 183.78 1.1L183.78 1.1Q183.78 0.6 184.38-1.45L184.38-1.45Q184.48-1.75 183.46-2.45 182.43-3.15 181.68-3.6L181.68-3.6Q178.98-5.2 178.98-8.8L178.98-8.8Q178.98-9.8 179.13-10.7L179.13-10.7Q180.03-16.2 184.48-18.5L184.48-18.5Q185.53-19.05 186.68-19.05L186.68-19.05Q187.53-19.05 188.43-18.8 189.33-18.55 189.48-18.5L189.48-18.5 190.53-18.2Q191.28-18 191.98-18L191.98-18Q192.93-18 193.71-18.35 194.48-18.7 195.28-19.45L195.28-19.45Q196.43-20.4 197.73-20.4L197.73-20.4Q198.68-20.4 199.43-19.88 200.18-19.35 200.53-18.35L200.53-18.35Q200.63-17.95 200.63-17.7L200.63-17.7Q200.63-17.25 200.48-17L200.48-17Q200.33-16.8 199.63-15.7L199.63-15.7Q199.28-15.05 198.98-14.6 198.68-14.15 198.03-13.6L198.03-13.6Q197.58-13.35 197.08-13.23 196.58-13.1 196.31-13 196.03-12.9 196.03-12.6L196.03-12.6ZM185.53-13.35Q183.98-11.55 183.98-9.7L183.98-9.7Q183.98-8.4 184.81-7.23 185.63-6.05 187.33-5.2L187.33-5.2Q189.23-5.95 190.28-7.8 191.33-9.65 191.33-11.85L191.33-11.85Q191.33-13.2 190.93-14.3 190.53-15.4 189.33-16L189.33-16Q187.03-15.1 185.53-13.35L185.53-13.35ZM212.83-7.8Q212.33-7.5 211.38-7.5L211.38-7.5Q211.03-7.5 210.53-7.55 210.03-7.6 209.68-7.55L209.68-7.55Q210.08-5.9 211.58-4.88 213.08-3.85 214.93-3.85L214.93-3.85Q216.53-3.85 217.78-4.55L217.78-4.55Q219.63-5.5 220.98-6.8L220.98-6.8Q221.93-7.75 222.78-7.75L222.78-7.75Q223.33-7.75 223.73-7.2L223.73-7.2Q224.13-6.55 224.13-5.6L224.13-5.6Q224.13-4.6 223.73-4.05L223.73-4.05Q222.43-2.05 220.36-1.3 218.28-0.55 215.53-0.55L215.53-0.55Q212.68-0.55 210.03-1.8 207.38-3.05 205.51-5.23 203.63-7.4 203.03-10.05L203.03-10.05Q202.63-11.6 202.63-13.1L202.63-13.1Q202.63-15.45 203.96-16.9 205.28-18.35 208.23-19.65L208.23-19.65Q210.93-20.8 213.23-20.8L213.23-20.8Q214.88-20.8 216.43-20.3L216.43-20.3Q221.23-18.8 221.23-16.2L221.23-16.2Q221.23-14.55 219.28-12.2L219.28-12.2Q218.33-11.1 217.03-10.25 215.73-9.4 214.51-8.72 213.28-8.05 212.83-7.8L212.83-7.8ZM214.93-17.05Q214.88-17.3 214.56-17.48 214.23-17.65 214.18-17.7L214.18-17.7Q212.83-17.8 211.43-16.93 210.03-16.05 209.11-14.7 208.18-13.35 208.18-12.1L208.18-12.1 208.23-11.7Q208.28-11.5 208.76-11.2 209.23-10.9 209.33-11L209.33-11Q212.88-13.65 214.68-15.25L214.68-15.25Q214.98-15.55 214.98-16.35L214.98-16.35Q214.98-16.85 214.93-17.05L214.93-17.05ZM247.73-22.5Q247.83-22.4 247.93-22.35 248.03-22.3 248.13-22.25L248.13-22.25Q249.98-23.65 252.08-25.15L252.08-25.15 263.03-32.9Q263.58-33.3 264.68-33.3L264.68-33.3Q265.58-33.3 266.4-32.98 267.23-32.65 267.58-32.1L267.58-32.1Q267.88-31.65 267.88-31.2L267.88-31.2Q267.88-30.55 267.08-29.75L267.08-29.75 261.58-25.1 260.18-23.95Q257.78-22.05 256.63-21L256.63-21Q255.93-20.4 255.6-19.98 255.28-19.55 255.28-19.1L255.28-19.1Q255.28-18.5 256.13-17.1L256.13-17.1 257.03-15.7Q260.33-10.4 262.7-7 265.08-3.6 267.98-0.55L267.98-0.55 268.83 0.4Q267.98 1.1 267.33 1.1L267.33 1.1Q266.73 1.1 266.18 0.65L266.18 0.65Q262.73-1.9 260.03-4.58 257.33-7.25 255.38-10.45L255.38-10.45Q254.38-12.05 252.88-14.05L252.88-14.05Q252.78-14.25 251.58-15.95L251.58-15.95 250.13-14.75Q247.38-12.55 245.98-11.2L245.98-11.2Q245.53-10.8 245.28-10.08 245.03-9.35 244.98-8.65L244.98-8.65Q244.93-7.85 244.93-6.2L244.93-6.2 244.98-1.25Q244.98-0.1 244.75 0.68 244.53 1.45 243.73 1.95L243.73 1.95Q241.93 1.3 241.25 0.85 240.58 0.4 240.35-0.35 240.13-1.1 240.08-2.85L240.08-2.85 239.88-5.4Q239.63-7.5 239.63-9.05L239.63-9.05Q239.63-11.4 240-13.78 240.38-16.15 241.13-19.7L241.13-19.7Q242.13-24.75 243.43-29L243.43-29Q244.03-30.85 245.08-32.88 246.13-34.9 246.33-35.3L246.33-35.3Q246.68-35.95 247.05-36.25 247.43-36.55 247.93-36.55L247.93-36.55Q248.68-36.55 250.23-35.8L250.23-35.8Q250.98-35.45 251.25-35.15 251.53-34.85 251.53-34.4L251.53-34.4Q251.53-33.95 251.23-33.1L251.23-33.1 249.53-28.25Q249.18-27.15 248.38-24.95L248.38-24.95Q248.18-24.35 247.73-22.5L247.73-22.5ZM278.52-23.3Q278.42-23 277.8-22.65 277.17-22.3 276.77-22L276.77-22 275.37-22.75Q273.32-23.85 272.57-24.5L272.57-24.5Q272.17-24.8 272.17-25.25L272.17-25.25Q272.17-25.55 272.4-25.78 272.62-26 273.07-26L273.07-26Q275.02-26 277.82-25L277.82-25Q278.12-24.95 278.37-24.33 278.62-23.7 278.52-23.3L278.52-23.3ZM274.02-14Q274.17-14.65 274.22-14.95 274.27-15.25 274.27-15.6L274.27-15.6Q274.27-16.3 274.7-16.7 275.12-17.1 276.32-17.1L276.32-17.1Q277.72-17.1 278.8-16.23 279.87-15.35 280.12-13.95L280.12-13.95Q280.27-13.25 280.32-12.4 280.37-11.55 280.37-11.3L280.37-11.3 281.07-2.75Q281.22-1.4 280.7-0.68 280.17 0.05 278.72 0.05L278.72 0.05Q277.47 0.05 276.6-0.65 275.72-1.35 275.52-2.45L275.52-2.45 274.22-13.05 274.02-14ZM284.52-18.65Q284.17-19.05 284.05-19.5 283.92-19.95 283.82-20.75L283.82-20.75Q284.27-21.8 285.47-21.8L285.47-21.8Q286.07-21.7 286.32-21.7L286.32-21.7Q287.32-21.7 287.57-22.3 287.82-22.9 287.82-23.7 287.82-24.5 287.82-24.95L287.82-24.95 287.97-27.95Q288.02-28.95 288.1-30.43 288.17-31.9 288.27-33.85L288.27-33.85Q288.32-34.9 288.8-35.4 289.27-35.9 290.12-35.9L290.12-35.9Q290.72-35.9 291.07-35.8L291.07-35.8Q293.12-35.35 293.82-34.5 294.52-33.65 294.77-31.95L294.77-31.95Q294.82-31.6 294.67-30.5L294.67-30.5 293.77-22.7Q293.72-22.4 293.62-21.98 293.52-21.55 293.52-21.35L293.52-21.35Q293.52-20.9 294.02-20.75 294.52-20.6 295.87-20.65L295.87-20.65Q298.17-21.15 299.37-21.3L299.37-21.3Q299.62-21.35 300.17-21.35L300.17-21.35Q300.77-21.35 300.97-21.2L300.97-21.2Q301.17-21.1 301.3-20.63 301.42-20.15 301.42-19.55L301.42-19.55Q301.42-19 301.3-18.55 301.17-18.1 300.97-18.05L300.97-18.05Q299.62-17.65 297.77-17.4L297.77-17.4Q295.57-17 294.52-16.7L294.52-16.7Q293.97-16.55 293.42-15.95 292.87-15.35 292.82-14.85L292.82-14.85Q292.72-12.4 292.67-9.85L292.67-9.85Q292.62-7.9 292.82-5.95L292.82-5.95Q292.97-4.3 293.47-3.58 293.97-2.85 294.97-2.85L294.97-2.85Q295.77-2.85 297.27-3.4L297.27-3.4Q298.07-3.75 298.67-3.75L298.67-3.75Q299.62-3.75 300.02-2.7L300.02-2.7Q300.17-2.35 300.17-2L300.17-2Q300.17-1.35 299.7-0.95 299.22-0.55 298.42-0.25L298.42-0.25Q296.92 0.3 295.37 0.35L295.37 0.35Q293.27 0.35 291.42-0.68 289.57-1.7 288.5-3.55 287.42-5.4 287.57-7.8L287.57-7.8Q287.62-8.75 287.62-10.8L287.62-10.8Q287.62-14.05 287.37-17.4L287.37-17.4Q287.32-17.7 287.02-17.82 286.72-17.95 286.02-18.1L286.02-18.1Q284.87-18.3 284.52-18.65L284.52-18.65ZM313.42-7.8Q312.92-7.5 311.97-7.5L311.97-7.5Q311.62-7.5 311.12-7.55 310.62-7.6 310.27-7.55L310.27-7.55Q310.67-5.9 312.17-4.88 313.67-3.85 315.52-3.85L315.52-3.85Q317.12-3.85 318.37-4.55L318.37-4.55Q320.22-5.5 321.57-6.8L321.57-6.8Q322.52-7.75 323.37-7.75L323.37-7.75Q323.92-7.75 324.32-7.2L324.32-7.2Q324.72-6.55 324.72-5.6L324.72-5.6Q324.72-4.6 324.32-4.05L324.32-4.05Q323.02-2.05 320.94-1.3 318.87-0.55 316.12-0.55L316.12-0.55Q313.27-0.55 310.62-1.8 307.97-3.05 306.09-5.23 304.22-7.4 303.62-10.05L303.62-10.05Q303.22-11.6 303.22-13.1L303.22-13.1Q303.22-15.45 304.54-16.9 305.87-18.35 308.82-19.65L308.82-19.65Q311.52-20.8 313.82-20.8L313.82-20.8Q315.47-20.8 317.02-20.3L317.02-20.3Q321.82-18.8 321.82-16.2L321.82-16.2Q321.82-14.55 319.87-12.2L319.87-12.2Q318.92-11.1 317.62-10.25 316.32-9.4 315.09-8.72 313.87-8.05 313.42-7.8L313.42-7.8ZM315.52-17.05Q315.47-17.3 315.14-17.48 314.82-17.65 314.77-17.7L314.77-17.7Q313.42-17.8 312.02-16.93 310.62-16.05 309.69-14.7 308.77-13.35 308.77-12.1L308.77-12.1 308.82-11.7Q308.87-11.5 309.34-11.2 309.82-10.9 309.92-11L309.92-11Q313.47-13.65 315.27-15.25L315.27-15.25Q315.57-15.55 315.57-16.35L315.57-16.35Q315.57-16.85 315.52-17.05L315.52-17.05Z" opacity="1" transform="matrix(1,0,0,1,0,0)" fill="#001f3f" class="wordmark-text-0" data-fill-palette-color="primary" id="text-0"></path></svg></g></svg></g></svg></g></svg></g></svg></g></svg></g></svg></g><g mask="url(#ea82a518-3119-4534-b5ea-45a27037efef)"><g transform="matrix(1.6220382186821656, 0, 0, 1.6220382186821656, 75.0029838491925, 1)"><svg xmlns="http://www.w3.org/2000/svg" xmlns:xlink="http://www.w3.org/1999/xlink" version="1.1" x="0" y="0" viewBox="24.37856674194336 24.451602935791016 151.36143493652344 151.16783142089844" style="enable-background:new 0 0 200 200;" xml:space="preserve" height="151.16783142089844" width="151.36143493652344" class="icon-none" data-fill-palette-color="accent" id="none"><g fill="#001f3f" data-fill-palette-color="accent"><path d="M175.5 85.9c-0.4-2.2-1.4-4.2-2.5-6-1.2-1.8-2.9-3.4-4.8-4.5-3.8-2.2-8.5-2.7-12.5-1.3-2 0.7-3.9 1.7-5.5 3.2-0.4 0.4-0.7 0.8-1.1 1.1-0.2 0.2-0.4 0.4-0.5 0.6l-0.2 0.3-0.1 0.1c-0.2 0.2-0.2 0.5-0.4 0.8l-0.4-0.2c-0.1-0.1-0.4-0.1-0.6-0.2-0.1 0-0.1 0-0.2-0.1l-0.4-0.1-0.8-0.2c-0.5-0.1-1.1-0.1-1.6-0.2-2.1-0.1-4.2 0.4-5.9 1.4-3.6 1.9-6 5.6-6 9.4 0 0.8 0.4 1.1 0.8 1.1-0.9 0-1.8 0.6-2.3 1.9-0.5 1.3-0.4 3.3 0.8 5.2 1.2 1.9 3 3.4 4.8 4.3 1.8 0.9 3.6 1.5 5.4 1.9 3.6 0.7 7 0.8 10.3 0.7 1.7 0 3.3-0.1 5-0.3 1.7-0.1 3-0.2 5.2-0.5 3.9-0.8 7.5-2.9 10.1-6 1.4-1.7 2.5-3.7 3.1-5.9C175.8 90.4 175.9 88.1 175.5 85.9zM166.9 94.1c-1.5 1.9-3.7 3.1-6.1 3.6-1 0.2-2.9 0.3-4.4 0.4-1.6 0.1-3.1 0.2-4.6 0.3-3 0.1-6 0-8.7-0.6-2.7-0.5-5-1.7-5.9-3.2-0.5-0.7-1.1-1.4-1.8-2.1-0.7-0.7-1.6-1.3-2.5-1.3 0.4 0 0.8-0.3 0.9-0.9v0c0.6-3.1 2.9-5.6 5.7-6.6 1.4-0.5 2.8-0.6 4.2-0.4 0.3 0.1 0.7 0.1 1 0.2l0.5 0.2 0.2 0.1c0.1 0 0.3 0.2 0.4 0.2 0.6 0.4 1.2 0.7 1.8 1.1l1.9 1.3c0.8-1.2 1.5-2.5 2.4-3.8l0.5-0.6c0.1-0.1 0.2-0.2 0.4-0.4l0.8-0.7c1.1-0.8 2.4-1.4 3.7-1.7 2.7-0.6 5.5-0.1 7.7 1.3 1.1 0.7 2 1.6 2.7 2.8 0.7 1.2 1.2 2.4 1.4 3.6 0.2 1.2 0.1 2.5-0.2 3.7C168.3 92 167.7 93.1 166.9 94.1z" fill="#001f3f" data-fill-palette-color="accent"></path><path d="M135 54.8l0.5-0.9c0.2-0.4 0.3-0.8 0.5-1.2 0.2-0.4 0.2-0.8 0.3-1.3 0.1-0.4 0.1-0.9 0.1-1.3-0.1-0.4-0.2-0.8-0.4-1.1l-0.5-1.1c-0.2-0.3-0.5-0.6-0.7-1-0.2-0.3-0.5-0.7-0.7-0.8-0.7-0.7-1.4-1.3-2.1-1.9-1.4-1.1-2.8-2.1-4.2-3l-4.1-2.8c-0.7-0.5-1-0.7-1.7-1.3l-1.9-1.5-5-4.1-1.3-1c-0.5-0.4-0.6-0.5-1-0.9-0.7-0.7-1.5-1.5-2.4-2.3-0.5-0.4-0.9-0.8-1.5-1.3-0.8-0.6-1.8-1.2-2.7-1.4-1-0.3-2-0.1-3 0.2-0.5 0.2-1 0.4-1.4 0.7-0.5 0.3-0.8 0.5-1 0.7-2.1 1.5-3.7 3-5.3 4.6L92.9 33c-0.4 0.4-0.6 0.5-1 0.9l-1.2 1-5 4.2-2.5 2.1c-0.5 0.4-0.7 0.6-1.1 0.9l-1.3 0.9c-0.9 0.6-1.8 1.3-2.8 2-0.5 0.4-1 0.8-1.4 1.3-0.2 0.2-0.5 0.5-0.7 0.8l-0.4 0.6c-0.1 0.2-0.3 0.4-0.4 0.6-0.4 0.9-0.7 1.8-0.7 2.8 0 0.5 0.1 1 0.2 1.4 0.1 0.5 0.3 1 0.5 1.3 0.7 1.4 1.4 2.3 2.1 3.2l1 1.2c0.3 0.4 0.5 0.7 0.9 1.2l1.8 2.7 7.3 10.6c4.9 7.1 9.8 14.1 14.8 21.1-0.1 3.5-0.3 6.9-0.6 10.4-0.2 2.4-0.5 4.8-0.8 7.2-0.5 2.3-0.8 4.7-1.4 7-3.8 15.2-12.8 28.9-24.9 38.9-12.1 10-27.4 16.4-43.4 17.1h0c-2.1 0.2-2.1 1.2 0 1.2h0c16.2 0.4 32.6-5.4 45.6-15.4 13.1-10 23-24.5 27-40.7 0.6-2.5 1-5 1.5-7.5 0.4-2.5 0.6-5 0.9-7.5 0.3-3.5 0.5-6.9 0.6-10.4 1.6-1 3.3-2.8 4.9-5.2l11.7-18.3L127 66l0.7-1.1 0.4-0.6 0.3-0.4c0.4-0.6 1-1.3 1.6-2.1 1.1-1.4 2.3-2.9 3.4-4.5C133.9 56.6 134.4 55.7 135 54.8zM122.8 59.9l-0.5 0.7-0.4 0.6-0.7 1.1-2.9 4.6-11.7 18.3c-1.5 2.4-2.5 4.8-2.7 6.7-4.1-7.1-8.2-14.3-12.4-21.4l-6.6-11.1-1.7-2.8c-0.3-0.4-0.6-1-0.9-1.5l-1-1.4c-0.6-0.9-1.2-1.7-1.4-2.3-0.1-0.3-0.1-0.5 0-0.7 0 0 0 0 0-0.1 0 0 0 0 0.1-0.1 0.1-0.1 0.2-0.2 0.4-0.4 0.3-0.3 0.6-0.5 1-0.8 0.8-0.6 1.6-1.1 2.5-1.7l1.4-0.9c0.5-0.3 1.1-0.8 1.5-1.1l2.6-2 5.1-4 1.3-1c0.4-0.3 1-0.8 1.4-1.2l2.4-2.2c1.5-1.4 3.1-2.8 4.6-3.8 0.5-0.3 0.3-0.2 0.3-0.2 0 0 0 0 0 0 0 0 0 0 0 0 0.2 0.2 0.6 0.5 1 0.8 0.7 0.7 1.4 1.4 2.2 2.2 0.2 0.2 0.4 0.4 0.7 0.7l0.7 0.6 1.3 1 5 4.1 1.9 1.5c0.5 0.5 1.5 1.2 2.2 1.6l4.1 2.8c1.3 0.9 2.6 1.8 3.8 2.8 0.6 0.5 1.2 0.9 1.6 1.4l0.1 0.1-0.2 0.3c-0.4 0.6-0.8 1.3-1.3 2-1 1.4-2 2.8-3.1 4.2C124 58.4 123.4 59 122.8 59.9z" fill="#001f3f" data-fill-palette-color="accent"></path><path d="M35.7 126.4l0.9 0.4c0.6 0.3 1.2 0.6 1.9 0.8 1.3 0.4 2.6 0.8 3.9 1 1.4 0.2 2.5 0.3 3.7 0.4 1.2 0.1 2.4 0.1 3.5 0.1 2.3 0 4.7 0 6.9-0.1l6.8-0.2 1.7 0 1.8 0c1.2-0.1 2.5-0.2 3.8-0.4 2.5-0.4 5.1-1.1 7.5-2.3 2.4-1.2 4.8-3.2 6.3-5.7 1.5-2.4 1.8-5 1.4-6.7-0.4-1.7-1.3-2.6-2.2-2.6-1 0-1.8 0.9-2.6 1.9-0.8 1.1-1.5 2.4-2.3 3.6-1.7 2.7-5.2 4.3-9.1 4.9-1 0.1-2 0.2-3 0.3l-1.6 0-1.7 0-6.8 0.2c-2.3 0.1-4.5 0.1-6.7 0.1-1.1 0-2.2-0.1-3.3-0.1-1.1-0.1-2.2-0.2-3-0.3-0.9-0.1-1.8-0.4-2.7-0.7-0.4-0.1-0.8-0.4-1.3-0.5l-0.6-0.3-0.6-0.4c-1.6-0.9-3-2.2-4.1-3.6-1.9-2.4-3.1-5.3-3.2-8.3-0.2-3 0.6-6 2.2-8.6 1.6-2.6 4.1-4.5 6.9-5.7 2.8-1.2 6.1-1.2 9.2-0.5 3.1 0.7 5.9 2.5 7.9 4.9l0.4 0.5c0.3 0.4 0.5 0.7 0.7 1l1.2 2 0.6 1 0.1 0.2c0 0 0 0.1 0.1 0.1l0.1-0.1 0.5-0.3 2-1.3 1-0.6c0.3-0.2 0.8-0.4 0.9-0.5 0.3-0.2 0.7-0.4 1.1-0.5l1.1-0.4c0.4-0.1 0.8-0.1 1.2-0.2 1.6-0.2 3.2-0.2 4.8 0.3 1.6 0.4 3.1 1.1 4.5 2.1 0.7 0.4 1.3 1.1 1.9 1.6 0.5 0.7 1.1 1.3 1.5 2 0.5 0.7 0.8 1.5 1.2 2.3 0.2 0.4 0.2 0.8 0.4 1.2 0.1 0.4 0.2 0.8 0.3 1.3v0c0.1 0.9 0.6 1.4 1 1.4 0.4 0 0.8-0.5 0.8-1.5 0-0.5-0.1-1-0.1-1.5-0.1-0.5-0.1-1-0.3-1.5-0.3-0.9-0.6-1.9-1.1-2.8-0.4-0.9-1-1.7-1.6-2.6-0.7-0.8-1.3-1.6-2.1-2.2-1.5-1.4-3.3-2.4-5.3-3.1-1.9-0.7-4.1-1-6.2-0.9-0.5 0.1-1.1 0.1-1.6 0.2l-1.6 0.4c-0.5 0.1-1 0.3-1.5 0.5l-0.4 0.1c-0.1 0-0.2 0-0.2 0.1-0.3 0.1-0.6 0.4-0.7-0.1l-0.2-0.4c0-0.1-0.1-0.2-0.1-0.1l-0.5-0.6c-2.5-3.4-6.1-6.1-10.2-7.3-4.1-1.2-8.6-1.3-12.7 0.1-4.1 1.4-7.9 4.2-10.3 7.9-2.5 3.6-3.7 8.1-3.5 12.5 0.1 4.4 1.8 8.7 4.5 12.2 1.7 2.1 3.7 4 6 5.3L35.7 126.4z" fill="#001f3f" data-fill-palette-color="accent"></path></g></svg></g></g></svg></g><defs></defs></svg><rect width="395.52" height="247.2" fill="none" stroke="none" visibility="hidden"></rect></g></svg></g></svg>